<svg width="375" height="191" viewBox="0 0 375 191" fill="none" xmlns="http://www.w3.org/2000/svg">
<path d="M222.703 107.348H216.53L212.831 98.4201L219.042 98.4201C219.5 98.4183 219.923 98.6616 220.152 99.0578L223.812 105.435C224.041 105.83 224.04 106.317 223.811 106.712C223.582 107.107 223.159 107.35 222.703 107.348Z" fill="#10FFCB"/>
<path d="M161.152 98.4201L157.453 107.348H151.28C150.824 107.35 150.401 107.107 150.172 106.712C149.943 106.317 149.943 105.83 150.171 105.435L153.831 99.0578C154.06 98.6616 154.483 98.4183 154.941 98.4201L161.152 98.4201Z" fill="#10FFCB"/>
<path d="M202.194 107.348H171.776L174.25 98.4201H199.72L199.911 99.096L202.194 107.348Z" fill="#10FFCB"/>
<path d="M213.928 92.0427H210.178L207.538 85.6657L211.734 85.6657C212.192 85.6639 212.615 85.9072 212.844 86.3034L215.038 90.1296C215.266 90.525 215.265 91.0122 215.036 91.4072C214.807 91.8021 214.385 92.0445 213.928 92.0427Z" fill="#10FFCB"/>
<path d="M166.445 85.6657L163.792 92.0427H160.055C159.599 92.0445 159.176 91.8021 158.947 91.4072C158.718 91.0122 158.717 90.525 158.946 90.1296L161.139 86.3034C161.368 85.9072 161.791 85.6639 162.249 85.6657L166.445 85.6657Z" fill="#10FFCB"/>
<path d="M197.96 92.0427H176.023L177.783 85.6657H196.2L197.96 92.0427Z" fill="#10FFCB"/>
<path d="M213.137 115H208.906C207.758 115 206.752 114.235 206.447 113.129L204.847 107.348L202.373 98.4198L195.065 71.9808C194.957 71.5971 195.035 71.1852 195.276 70.8674C195.516 70.5495 195.891 70.3622 196.289 70.361H197.565C198.084 70.3584 198.553 70.6712 198.751 71.1518L210.064 98.4198L213.775 107.348L215.487 111.471C215.813 112.257 215.726 113.154 215.254 113.863C214.783 114.571 213.989 114.998 213.137 115Z" fill="#10FFCB"/>
<path d="M178.918 71.9808L171.61 98.4198L169.136 107.348L167.537 113.129C167.231 114.235 166.225 115 165.078 115H160.852C160 115 159.204 114.574 158.731 113.865C158.258 113.156 158.17 112.258 158.497 111.471L160.208 107.348L163.92 98.4198L175.232 71.1518C175.43 70.6712 175.899 70.3584 176.419 70.361H177.694C178.092 70.3622 178.468 70.5495 178.708 70.8674C178.948 71.1852 179.026 71.5971 178.918 71.9808Z" fill="#10FFCB"/>
<path d="M207.36 80.5642H205.421L203.291 75.4626L205.893 75.4626C206.35 75.4608 206.774 75.7041 207.003 76.1003L208.469 78.6511C208.698 79.0465 208.697 79.5337 208.468 79.9287C208.239 80.3236 207.816 80.566 207.36 80.5642Z" fill="#10FFCB"/>
<path d="M170.679 75.4626L168.562 80.5642H166.624C166.167 80.566 165.744 80.3236 165.515 79.9287C165.286 79.5337 165.286 79.0465 165.514 78.6511L166.981 76.1003C167.209 75.7041 167.633 75.4608 168.09 75.4626L170.679 75.4626Z" fill="#10FFCB"/>
<path d="M194.784 80.5647H179.199L180.602 75.4631H193.381L194.784 80.5647Z" fill="#10FFCB"/>
<path d="M195.253 61.3601V63.4117C195.253 65.0444 194.054 66.4025 192.494 66.6336L191.988 68.4974C191.714 69.5088 190.803 70.2167 189.749 70.2167H184.735C183.681 70.2167 182.77 69.5088 182.496 68.4974L182.005 66.6336C180.43 66.388 179.231 65.0443 179.231 63.3973V61.3457C179.231 60.2477 180.112 59.3663 181.21 59.3663H193.274C194.372 59.3808 195.253 60.2621 195.253 61.3601ZM204.543 33.7069C204.543 38.3736 202.694 42.6068 199.689 45.7131C197.406 48.0825 195.932 51.1022 195.441 54.324C195.224 55.711 194.025 56.7368 192.609 56.7368H181.875C180.473 56.7368 179.259 55.7255 179.057 54.3385C178.552 51.1166 177.063 48.0536 174.781 45.6986C171.833 42.6357 169.998 38.4747 169.955 33.8947C169.854 24.2724 177.511 16.485 187.134 16.4128C196.741 16.3406 204.543 24.1135 204.543 33.7069ZM189.2 23.2322C189.2 22.163 188.333 21.2817 187.249 21.2817C180.372 21.2817 174.766 26.8731 174.766 33.7647C174.766 34.8338 175.633 35.7152 176.717 35.7152C177.786 35.7152 178.667 34.8483 178.667 33.7647C178.667 29.0258 182.525 25.1827 187.249 25.1827C188.333 25.1827 189.2 24.3158 189.2 23.2322ZM187.249 10.7348C188.318 10.7348 189.2 9.8679 189.2 8.78431V1.95046C189.2 0.881321 188.333 0 187.249 0C186.166 0 185.299 0.866873 185.299 1.95046V8.78431C185.299 9.8679 186.18 10.7348 187.249 10.7348ZM164.291 33.6925C164.291 32.6233 163.425 31.742 162.341 31.742H155.507C154.438 31.742 153.557 32.6089 153.557 33.6925C153.557 34.7616 154.424 35.6429 155.507 35.6429H162.341C163.425 35.6429 164.291 34.776 164.291 33.6925ZM218.991 31.742H212.157C211.088 31.742 210.207 32.6089 210.207 33.6925C210.207 34.7616 211.074 35.6429 212.157 35.6429H218.991C220.06 35.6429 220.942 34.776 220.942 33.6925C220.942 32.6233 220.075 31.742 218.991 31.742ZM168.265 49.9319L163.425 54.7719C162.659 55.5377 162.659 56.7657 163.425 57.5315C163.8 57.9071 164.306 58.0949 164.797 58.0949C165.288 58.0949 165.794 57.9071 166.17 57.5315L171.01 52.6914C171.775 51.9257 171.775 50.6976 171.01 49.9319C170.258 49.1661 169.016 49.1661 168.265 49.9319ZM204.861 18.031C205.352 18.031 205.858 17.8431 206.234 17.4675L211.074 12.6274C211.839 11.8617 211.839 10.6336 211.074 9.8679C210.308 9.10216 209.08 9.10216 208.314 9.8679L203.474 14.7079C202.708 15.4737 202.708 16.7017 203.474 17.4675C203.864 17.8431 204.355 18.031 204.861 18.031ZM168.265 17.453C168.64 17.8287 169.146 18.0165 169.637 18.0165C170.128 18.0165 170.634 17.8287 171.01 17.453C171.775 16.6873 171.775 15.4592 171.01 14.6935L166.17 9.85345C165.404 9.08772 164.176 9.08772 163.41 9.85345C162.644 10.6192 162.644 11.8473 163.41 12.613L168.265 17.453ZM206.234 49.9319C205.468 49.1661 204.24 49.1661 203.474 49.9319C202.708 50.6976 202.708 51.9257 203.474 52.6914L208.314 57.5315C208.69 57.9071 209.195 58.0949 209.687 58.0949C210.178 58.0949 210.684 57.9071 211.059 57.5315C211.825 56.7657 211.825 55.5377 211.059 54.7719L206.234 49.9319Z" fill="#10FFCB"/>
<path d="M135.522 162.68L131.682 147.68C129.788 148.4 128.322 149.52 127.282 151.04C126.242 152.533 125.722 154.373 125.722 156.56C125.722 157.547 125.815 158.24 126.002 158.64C126.188 159.013 126.282 159.227 126.282 159.28C124.842 159.28 123.762 158.987 123.042 158.4C122.348 157.787 122.002 156.787 122.002 155.4C122.002 153.693 122.695 152.04 124.082 150.44C125.495 148.813 127.295 147.507 129.482 146.52C131.668 145.507 133.855 145 136.042 145C136.415 145 136.948 145.027 137.642 145.08L141.122 159.4L147.042 145.2H149.682L141.922 162.68L139.282 175H132.882L135.522 162.68ZM152.406 175.16C150.433 175.16 148.873 174.653 147.726 173.64C146.58 172.627 146.006 171.027 146.006 168.84C146.006 167.027 146.38 165.013 147.126 162.8C147.873 160.587 149.073 158.68 150.726 157.08C152.38 155.453 154.46 154.64 156.966 154.64C160.38 154.64 162.086 156.773 162.086 161.04V161.08C162.166 161.107 162.313 161.12 162.526 161.12C163.406 161.12 164.42 160.893 165.566 160.44C166.713 159.96 167.753 159.387 168.686 158.72L169.046 159.8C168.273 160.627 167.26 161.333 166.006 161.92C164.78 162.48 163.433 162.88 161.966 163.12C161.753 165.547 161.206 167.667 160.326 169.48C159.446 171.293 158.313 172.693 156.926 173.68C155.54 174.667 154.033 175.16 152.406 175.16ZM154.006 171.56C154.646 171.56 155.286 171.2 155.926 170.48C156.566 169.733 157.126 168.733 157.606 167.48C158.086 166.2 158.433 164.787 158.646 163.24C157.926 163.08 157.566 162.52 157.566 161.56C157.566 160.467 157.98 159.747 158.806 159.4C158.753 158.52 158.62 157.92 158.406 157.6C158.193 157.253 157.82 157.08 157.286 157.08C156.406 157.08 155.553 157.72 154.726 159C153.9 160.28 153.233 161.813 152.726 163.6C152.22 165.387 151.966 166.96 151.966 168.32C151.966 169.6 152.113 170.467 152.406 170.92C152.7 171.347 153.233 171.56 154.006 171.56ZM168.105 175.24C166.825 175.24 165.785 174.84 164.985 174.04C164.211 173.24 163.825 172.04 163.825 170.44C163.825 169.773 163.931 168.907 164.145 167.84L166.865 155H172.625L169.745 168.6C169.665 168.92 169.625 169.253 169.625 169.6C169.625 170.773 170.025 171.36 170.825 171.36C171.571 171.36 172.211 171.053 172.745 170.44C173.278 169.8 173.705 168.933 174.025 167.84L176.745 155H182.505L179.625 168.6C179.518 169 179.465 169.427 179.465 169.88C179.465 170.413 179.585 170.8 179.825 171.04C180.091 171.253 180.518 171.36 181.105 171.36C181.531 171.36 181.838 171.333 182.025 171.28C182.238 171.2 182.371 171.147 182.425 171.12C182.318 172.48 181.851 173.507 181.025 174.2C180.198 174.893 179.185 175.24 177.985 175.24C176.865 175.24 175.958 174.907 175.265 174.24C174.598 173.573 174.198 172.64 174.065 171.44C173.158 172.907 172.198 173.907 171.185 174.44C170.198 174.973 169.171 175.24 168.105 175.24ZM191.704 149.56L197.624 148.76L194.784 162.12C196.064 162.013 197.237 161.453 198.304 160.44C199.397 159.427 200.251 158.173 200.864 156.68C201.477 155.187 201.784 153.72 201.784 152.28C201.784 150.68 201.371 149.373 200.544 148.36C199.717 147.347 198.477 146.84 196.824 146.84C193.571 146.84 191.024 147.693 189.184 149.4C187.371 151.107 186.464 153.493 186.464 156.56C186.464 157.547 186.557 158.24 186.744 158.64C186.931 159.013 187.024 159.227 187.024 159.28C185.584 159.28 184.504 158.987 183.784 158.4C183.091 157.787 182.744 156.787 182.744 155.4C182.744 153.693 183.437 152.04 184.824 150.44C186.237 148.813 188.037 147.507 190.224 146.52C192.411 145.507 194.597 145 196.784 145C198.891 145 200.651 145.36 202.064 146.08C203.477 146.8 204.517 147.76 205.184 148.96C205.877 150.133 206.224 151.44 206.224 152.88C206.224 154.613 205.744 156.307 204.784 157.96C203.851 159.613 202.504 160.973 200.744 162.04C198.984 163.08 196.957 163.6 194.664 163.6H194.464L192.024 175H186.264L191.704 149.56ZM212.114 152.84C211.234 152.84 210.487 152.533 209.874 151.92C209.26 151.307 208.954 150.56 208.954 149.68C208.954 148.8 209.26 148.053 209.874 147.44C210.487 146.8 211.234 146.48 212.114 146.48C212.994 146.48 213.74 146.8 214.354 147.44C214.994 148.053 215.314 148.8 215.314 149.68C215.314 150.56 214.994 151.307 214.354 151.92C213.74 152.533 212.994 152.84 212.114 152.84ZM209.394 175.24C208.114 175.24 207.074 174.84 206.274 174.04C205.5 173.24 205.114 172.04 205.114 170.44C205.114 169.773 205.22 168.907 205.434 167.84L208.154 155H213.914L211.034 168.6C210.927 169 210.874 169.427 210.874 169.88C210.874 170.413 210.994 170.8 211.234 171.04C211.5 171.253 211.927 171.36 212.514 171.36C213.287 171.36 214.007 171.04 214.674 170.4C215.34 169.733 215.82 168.88 216.114 167.84H217.794C216.807 170.72 215.54 172.68 213.994 173.72C212.447 174.733 210.914 175.24 209.394 175.24ZM220.058 175.24C218.778 175.24 217.738 174.84 216.938 174.04C216.164 173.24 215.778 172.04 215.778 170.44C215.778 169.773 215.884 168.907 216.098 167.84L218.498 156.6H217.178L217.498 155H218.818L220.018 149.48L225.938 148.68L224.578 155H226.978L226.658 156.6H224.258L221.698 168.6C221.591 169 221.538 169.427 221.538 169.88C221.538 170.413 221.658 170.8 221.898 171.04C222.164 171.253 222.591 171.36 223.178 171.36C223.951 171.36 224.671 171.04 225.338 170.4C226.004 169.733 226.484 168.88 226.778 167.84H228.458C227.471 170.72 226.204 172.68 224.658 173.72C223.111 174.733 221.578 175.24 220.058 175.24ZM232.482 175.24C230.508 175.24 228.975 174.733 227.882 173.72C226.788 172.68 226.242 171.067 226.242 168.88C226.242 167.04 226.602 165.013 227.322 162.8C228.068 160.587 229.242 158.68 230.842 157.08C232.468 155.453 234.522 154.64 237.002 154.64C238.602 154.64 239.735 154.987 240.402 155.68C241.095 156.373 241.442 157.253 241.442 158.32C241.442 159.253 241.242 159.973 240.842 160.48C240.442 160.987 239.935 161.24 239.322 161.24C238.868 161.24 238.402 161.08 237.922 160.76C238.242 159.88 238.402 159.093 238.402 158.4C238.402 157.893 238.308 157.493 238.122 157.2C237.935 156.907 237.655 156.76 237.282 156.76C236.482 156.76 235.682 157.413 234.882 158.72C234.082 160.027 233.428 161.613 232.922 163.48C232.415 165.347 232.162 167.027 232.162 168.52C232.162 169.827 232.388 170.72 232.842 171.2C233.295 171.653 234.028 171.88 235.042 171.88C236.482 171.88 237.708 171.547 238.722 170.88C239.762 170.213 240.895 169.2 242.122 167.84H243.482C240.522 172.773 236.855 175.24 232.482 175.24ZM255.833 175.24C254.42 175.24 253.393 174.813 252.753 173.96C252.113 173.107 251.793 172.027 251.793 170.72C251.793 170.16 251.86 169.533 251.993 168.84C252.127 168.12 252.26 167.427 252.393 166.76C252.553 166.093 252.66 165.667 252.713 165.48C252.927 164.547 253.127 163.627 253.313 162.72C253.5 161.813 253.593 161.08 253.593 160.52C253.593 159.16 253.113 158.48 252.153 158.48C251.513 158.48 250.927 158.773 250.393 159.36C249.887 159.947 249.473 160.72 249.153 161.68L246.313 175H240.553L246.353 147.8L252.273 147L250.113 157.04C251.447 155.573 253.007 154.84 254.793 154.84C256.153 154.84 257.233 155.213 258.033 155.96C258.833 156.707 259.233 157.84 259.233 159.36C259.233 160.133 259.14 161 258.953 161.96C258.767 162.893 258.5 164.04 258.153 165.4C257.94 166.227 257.74 167.04 257.553 167.84C257.393 168.613 257.313 169.227 257.313 169.68C257.313 170.213 257.433 170.627 257.673 170.92C257.913 171.213 258.327 171.36 258.913 171.36C259.553 171.36 259.993 171.28 260.233 171.12C260.073 172.48 259.58 173.507 258.753 174.2C257.953 174.893 256.98 175.24 255.833 175.24Z" fill="white"/>
</svg>
