<svg xmlns="http://www.w3.org/2000/svg" xmlns:xlink="http://www.w3.org/1999/xlink" viewBox="0 0 793.08 413.22"><defs><style>.cls-1{fill:none;}.cls-2{fill:#293e1a;}.cls-3{fill:#e54f50;}.cls-4{clip-path:url(#clip-path);}</style><clipPath id="clip-path" transform="translate(0 -20.42)"><polygon class="cls-1" points="636.43 0 620.43 0 404.43 0 404.43 163 620.43 163 620.43 359 852.43 359 852.43 0 636.43 0"/></clipPath></defs><g id="Layer_2" data-name="Layer 2"><g id="Layer_1-2" data-name="Layer 1"><path class="cls-2" d="M621,433.63H0v-271H621Zm-604-17H604v-237H17Z" transform="translate(0 -20.42)"/><path class="cls-3" d="M232.59,304.63v45.15q0,10.38-5.66,16t-15.66,5.61q-10.85,0-17.2-6.12t-6.35-17.62h15.79q0,9.25,7,9.25,6.09,0,6.08-7.1V304.63Z" transform="translate(0 -20.42)"/><path class="cls-3" d="M295,318.56v52.16H279v-9.44a17.32,17.32,0,0,1-6.68,7.29,19.39,19.39,0,0,1-10.33,2.71q-9,0-14.26-6t-5.28-16.46V318.56h15.89v28.32q0,5.33,2.76,8.27a9.68,9.68,0,0,0,7.43,3,9.84,9.84,0,0,0,7.67-3.09q2.81-3.08,2.8-8.78V318.56Z" transform="translate(0 -20.42)"/><path class="cls-3" d="M353.41,324q5.28,6,5.28,16.45v30.29h-16V342.3q0-5.24-2.76-8.18a9.6,9.6,0,0,0-7.34-2.94,10,10,0,0,0-7.71,3.08q-2.85,3.09-2.85,8.79v27.67h-16V318.56h16v9.53a17.14,17.14,0,0,1,6.68-7.38A19.59,19.59,0,0,1,339.15,318Q348.14,318,353.41,324Z" transform="translate(0 -20.42)"/><path class="cls-3" d="M399.36,320.61a16.32,16.32,0,0,1,6.35,7.39v-9.44H421.6v51.88a29.93,29.93,0,0,1-2.8,13.13,21.47,21.47,0,0,1-8.6,9.3q-5.79,3.47-14.4,3.46-11.78,0-18.83-5.56a22.6,22.6,0,0,1-8.46-15.1h15.8a7.89,7.89,0,0,0,3.41,5,12.34,12.34,0,0,0,7,1.77,11.2,11.2,0,0,0,8-2.85q3-2.85,3-9.11v-9.16a16.3,16.3,0,0,1-6.35,7.38,18.89,18.89,0,0,1-10.29,2.71,21.09,21.09,0,0,1-11.54-3.22,22,22,0,0,1-8-9.3,35.82,35.82,0,0,1,0-28.47,22.06,22.06,0,0,1,8-9.25,21.1,21.1,0,0,1,11.54-3.23A19,19,0,0,1,399.36,320.61Zm-13.42,14.68q-3.13,3.36-3.13,9.35t3.13,9.35a11.75,11.75,0,0,0,16.55-.1q3.22-3.45,3.22-9.25t-3.22-9.3a11.78,11.78,0,0,0-16.55,0Z" transform="translate(0 -20.42)"/><path class="cls-3" d="M448.62,301.54v69.18h-16V301.54Z" transform="translate(0 -20.42)"/><path class="cls-3" d="M508.73,347.54H472.55c.19,3.92,1.18,6.74,3,8.46a9.68,9.68,0,0,0,6.92,2.57,9.48,9.48,0,0,0,5.89-1.78,8.27,8.27,0,0,0,3.08-4.58h16.92a22.09,22.09,0,0,1-4.48,9.86,24,24,0,0,1-8.79,6.83,30.06,30.06,0,0,1-25.47-.75,23.09,23.09,0,0,1-9.31-9.3,32,32,0,0,1,0-28.47,22.7,22.7,0,0,1,9.3-9.25,30.67,30.67,0,0,1,27.3-.05A22.45,22.45,0,0,1,506,330a26.56,26.56,0,0,1,3.23,13.22A22.29,22.29,0,0,1,508.73,347.54Zm-18.46-14.45a10.2,10.2,0,0,0-7.06-2.57,10.44,10.44,0,0,0-7.29,2.62c-1.94,1.74-3,4.3-3.28,7.66H493C493.08,337.38,492.17,334.81,490.27,333.09Z" transform="translate(0 -20.42)"/><path class="cls-2" d="M568,354.73v16H515.71v-16Z" transform="translate(0 -20.42)"/><path class="cls-2" d="M112.59,269.78a29.16,29.16,0,0,1-12,11.73,38.1,38.1,0,0,1-18.37,4.21h-25V219.63h25a38.85,38.85,0,0,1,18.42,4.11,28.77,28.77,0,0,1,11.92,11.59,37.74,37.74,0,0,1,0,34.45Zm-17.2-3.32q5.19-4.95,5.18-13.93T95.39,238.6q-5.19-4.95-14.54-4.95H73.28v37.77h7.57Q90.2,271.42,95.39,266.46Z" transform="translate(0 -20.42)"/><path class="cls-2" d="M126.94,212.85a11.24,11.24,0,0,1,13.83,0,7.79,7.79,0,0,1,2.62,6,7.69,7.69,0,0,1-2.62,5.94,11.24,11.24,0,0,1-13.83,0,7.69,7.69,0,0,1-2.62-5.94A7.79,7.79,0,0,1,126.94,212.85Zm14.86,20.71v52.16h-16V233.56Z" transform="translate(0 -20.42)"/><path class="cls-2" d="M182.93,235.61a16.28,16.28,0,0,1,6.36,7.39v-9.44h15.89v51.88a29.93,29.93,0,0,1-2.81,13.13,21.41,21.41,0,0,1-8.6,9.3q-5.79,3.47-14.39,3.46-11.77,0-18.84-5.56a22.63,22.63,0,0,1-8.46-15.1h15.8a8,8,0,0,0,3.41,5,12.4,12.4,0,0,0,7,1.77,11.21,11.21,0,0,0,8-2.85q3-2.85,3-9.11v-9.16a16.26,16.26,0,0,1-6.36,7.38,18.88,18.88,0,0,1-10.28,2.71,21.15,21.15,0,0,1-11.55-3.22,22.09,22.09,0,0,1-8-9.3,35.93,35.93,0,0,1,0-28.47,22.13,22.13,0,0,1,8-9.25,21.16,21.16,0,0,1,11.55-3.23A19,19,0,0,1,182.93,235.61Zm-13.41,14.68q-3.14,3.36-3.14,9.35t3.14,9.35a11.73,11.73,0,0,0,16.54-.1,13,13,0,0,0,3.23-9.25q0-5.89-3.23-9.3a11.77,11.77,0,0,0-16.54-.05Z" transform="translate(0 -20.42)"/><path class="cls-2" d="M217.33,212.85a11.25,11.25,0,0,1,13.84,0,7.82,7.82,0,0,1,2.61,6,7.72,7.72,0,0,1-2.61,5.94,11.25,11.25,0,0,1-13.84,0,7.69,7.69,0,0,1-2.62-5.94A7.79,7.79,0,0,1,217.33,212.85Zm14.86,20.71v52.16h-16V233.56Z" transform="translate(0 -20.42)"/><path class="cls-2" d="M272.76,272v13.74h-7.19q-9.17,0-14.26-4.53t-5.09-15V247h-7V233.56h7V220.75h16v12.81h10.47V247H262.2v19.44c0,2.06.42,3.49,1.26,4.3s2.26,1.22,4.26,1.22Z" transform="translate(0 -20.42)"/><path class="cls-2" d="M311.84,235.61a16.32,16.32,0,0,1,6.35,7.39v-9.44h15.9v52.16h-15.9v-9.44a16.3,16.3,0,0,1-6.35,7.38,18.88,18.88,0,0,1-10.28,2.71A21.12,21.12,0,0,1,290,283.15a22,22,0,0,1-8-9.3,35.93,35.93,0,0,1,0-28.47,22.06,22.06,0,0,1,8-9.25,21.13,21.13,0,0,1,11.55-3.23A19,19,0,0,1,311.84,235.61Zm-13.42,14.68q-3.14,3.36-3.13,9.35t3.13,9.35a11.75,11.75,0,0,0,16.55-.1q3.22-3.45,3.22-9.25t-3.22-9.3a11.78,11.78,0,0,0-16.55-.05Z" transform="translate(0 -20.42)"/><path class="cls-2" d="M361.1,216.54v69.18h-16V216.54Z" transform="translate(0 -20.42)"/><g class="cls-4"><path class="cls-2" d="M552.72,103.43S637.38,68.83,615.09,67s-56.37,27.62-56.37,27.62,45.18-78.72,33-73.94C570.35,29.07,555,91.41,555,91.41s-22.33-68.6-29.27-45.93C522.9,54.67,552.72,103.43,552.72,103.43Z" transform="translate(0 -20.42)"/><path class="cls-2" d="M540.75,138.19s62-43.68,75-38.09-76.33,44.07-76.33,44.07-45.66-71.4-37.12-74.51S535.37,116.77,540.75,138.19Z" transform="translate(0 -20.42)"/><path class="cls-2" d="M521,269.91s57.55-48.93,74.39-46S521,277.33,521,277.33s-73.62-71.15-64.45-77.19S508.64,246.25,521,269.91Z" transform="translate(0 -20.42)"/><path class="cls-2" d="M517.74,223.4s68.65-53.3,83.83-47.59-85.08,54.51-85.08,54.51S460.41,151,470,147,510.45,199.16,517.74,223.4Z" transform="translate(0 -20.42)"/><path class="cls-2" d="M529.3,173.08s54.75-32.31,78.87-28.19c30.77,5.27-80.67,34.4-80.67,34.4s-46.44-70.07-31.43-76.58S529.3,173.08,529.3,173.08Z" transform="translate(0 -20.42)"/><path class="cls-2" d="M561.8,93s-1.48,3-3.91,8.27-5.78,12.93-9.49,22.22c-1.86,4.64-3.78,9.71-5.76,15.09s-3.93,11.09-5.84,17-3.8,12.12-5.51,18.44-3.31,12.78-4.77,19.26c-.66,3.26-1.35,6.51-1.95,9.76s-1.2,6.49-1.62,9.72-1,6.43-1.24,9.61c-.17,1.59-.34,3.16-.51,4.73s-.22,3.13-.33,4.67-.23,3.08-.29,4.6-.08,3-.11,4.5c-.14,3,0,5.88,0,8.71s.29,5.55.47,8.2.57,5.17.88,7.6.78,4.73,1.21,6.92c.22,1.09.44,2.15.65,3.18s.55,2,.82,2.95c.57,1.89,1,3.72,1.57,5.3l1.62,4.39a27.76,27.76,0,0,0,1.49,3.46c.46,1,.86,1.82,1.19,2.51l1,2.08-5.67,3L524.66,297l-1.25-2.73a32.09,32.09,0,0,1-1.56-3.74c-.5-1.43-1.07-3-1.68-4.73s-1-3.65-1.61-5.67c-.27-1-.54-2.07-.83-3.15s-.42-2.22-.64-3.37c-.44-2.31-1-4.73-1.2-7.29s-.71-5.2-.81-8-.43-5.6-.39-8.53-.1-5.94.07-9c.06-1.53.12-3.08.18-4.64s.23-3.13.35-4.72.27-3.18.4-4.79.38-3.21.57-4.83c.34-3.25.89-6.51,1.39-9.8s1.18-6.57,1.77-9.89,1.39-6.59,2.1-9.88c1.56-6.57,3.21-13.1,5.07-19.47s3.79-12.59,5.79-18.57,4.08-11.71,6.11-17.12,4-10.49,6-15.14c3.85-9.32,7.32-17,9.83-22.3s4.07-8.33,4.07-8.33Z" transform="translate(0 -20.42)"/><path class="cls-2" d="M657.2,292.05s47.54,71.27,45.11,50.46-35.86-46.6-35.86-46.6,80.69,26.8,74,16.56c-11.75-18.1-71.83-20.57-71.83-20.57s58.8-33.29,36.7-35.44C696.4,255.59,657.2,292.05,657.2,292.05Z" transform="translate(0 -20.42)"/><path class="cls-2" d="M623.06,287.55s51.65,48.74,48.94,61.71-54.69-61.85-54.69-61.85,57-55.23,61.48-48S641.71,278.62,623.06,287.55Z" transform="translate(0 -20.42)"/><path class="cls-2" d="M588.9,283.54s39.87,44.23,40.57,67.15c.9,29.23-46.61-67.64-46.61-67.64s55.66-55.7,64.44-43.13S588.9,283.54,588.9,283.54Z" transform="translate(0 -20.42)"/><path class="cls-2" d="M668.43,298.45s-3-.81-8.31-2.05-13-2.89-22.17-4.56c-4.61-.85-9.62-1.67-14.92-2.48s-10.92-1.54-16.73-2.19-11.83-1.22-18-1.61-12.34-.66-18.57-.79c-3.11,0-6.22,0-9.32,0s-6.18.11-9.22.33-6.08.33-9.05.65l-4.44.42-4.35.57c-1.44.2-2.87.36-4.27.59l-4.16.73c-2.76.43-5.4,1.08-8,1.66s-5,1.3-7.44,2-4.64,1.49-6.82,2.22-4.19,1.6-6.11,2.41l-2.81,1.18-2.55,1.31c-1.63.87-3.24,1.56-4.58,2.43l-3.72,2.31a25.76,25.76,0,0,0-2.9,2L478,307.12l-1.73,1.3-3.8-4.66,1.89-1.38,2.27-1.66a29.5,29.5,0,0,1,3.15-2.13l4-2.42c1.45-.91,3.15-1.63,4.9-2.54l2.73-1.35,3-1.21c2-.84,4.16-1.76,6.46-2.46s4.65-1.63,7.16-2.24,5.07-1.43,7.76-1.94,5.43-1.2,8.27-1.61l4.3-.71c1.45-.21,2.92-.36,4.39-.55l4.47-.53,4.55-.37c3-.3,6.14-.4,9.25-.56s6.26-.14,9.41-.22,6.31.05,9.47.09c6.31.21,12.62.51,18.81,1s12.27,1.13,18.13,1.85,11.51,1.56,16.86,2.41,10.38,1.77,15,2.68c9.27,1.8,17,3.55,22.3,4.87s8.4,2.18,8.4,2.18Z" transform="translate(0 -20.42)"/><path class="cls-3" d="M702.13,128.75S796.84,157.9,779.46,141s-66.21-15.57-66.21-15.57,91.93-34.95,78.48-39.27c-23.76-7.64-79.44,34.06-79.44,34.06s28.39-72.83,7-58.6C710.62,67.41,702.13,128.75,702.13,128.75Z" transform="translate(0 -20.42)"/><path class="cls-3" d="M668.22,149.67s81.93,6,89,19.56S663,153.74,663,153.74,673.73,62.53,683,65.79,678.42,128,668.22,149.67Z" transform="translate(0 -20.42)"/><path class="cls-3" d="M561.15,246.47S643,245,655.09,259s-99-6.29-99-6.29-12.83-110.19-1-109S567.09,218.18,561.15,246.47Z" transform="translate(0 -20.42)"/><path class="cls-3" d="M590.41,205.28s94.15,2.48,103,17.69S584.6,210.22,584.6,210.22s7.51-105,18.33-101.78S601,180,590.41,205.28Z" transform="translate(0 -20.42)"/><path class="cls-3" d="M634.66,171s68.08,10.52,85.46,30.55C742.29,227.14,628.89,175,628.89,175s9.2-90.62,26.25-85.77S634.66,171,634.66,171Z" transform="translate(0 -20.42)"/><path class="cls-3" d="M716.88,126.28s-3.27,1.45-9,4.24-13.72,6.87-23.21,12.11c-4.75,2.6-9.84,5.54-15.19,8.68s-10.92,6.6-16.6,10.27-11.51,7.54-17.28,11.67-11.55,8.44-17.23,12.87c-2.79,2.27-5.6,4.52-8.34,6.83s-5.46,4.62-8,7-5.21,4.74-7.64,7.2l-3.67,3.62-3.49,3.69c-1.14,1.23-2.31,2.41-3.4,3.65s-2.14,2.47-3.19,3.7c-2.16,2.4-4.06,4.9-5.95,7.31s-3.57,4.86-5.24,7.2-3.07,4.73-4.49,7-2.59,4.49-3.72,6.62l-1.66,3.12c-.45,1-.9,2-1.33,3-.82,2-1.76,3.77-2.32,5.53s-1.16,3.34-1.66,4.79a30.31,30.31,0,0,0-1.13,3.91c-.29,1.15-.53,2.13-.73,2.92-.39,1.59-.6,2.43-.6,2.43L545,274.3l.68-2.63c.23-.85.5-1.91.82-3.15a33.23,33.23,0,0,1,1.28-4.2c.55-1.55,1.17-3.26,1.83-5.12s1.65-3.76,2.55-5.86l1.46-3.2,1.78-3.27c1.22-2.23,2.45-4.62,4-6.93s3-4.85,4.79-7.23,3.49-5,5.53-7.42,4-5,6.24-7.49l3.34-3.77c1.14-1.26,2.35-2.46,3.54-3.71s2.4-2.48,3.62-3.74l3.8-3.66c2.52-2.49,5.22-4.84,7.89-7.26s5.51-4.7,8.27-7.07,5.7-4.57,8.56-6.84c5.81-4.43,11.69-8.78,17.62-12.83s11.82-7.95,17.61-11.59,11.46-7,16.88-10.16,10.59-6,15.42-8.57c9.62-5.16,17.78-9.2,23.55-11.93s9.13-4.19,9.13-4.19Z" transform="translate(0 -20.42)"/></g></g></g></svg>