<svg width="115" height="180" viewBox="0 0 115 180" fill="none" xmlns="http://www.w3.org/2000/svg">
<path d="M113.01 167.845H103.414L97.6652 153.968L107.32 153.968C108.031 153.965 108.689 154.343 109.045 154.959L114.734 164.871C115.089 165.486 115.088 166.243 114.732 166.857C114.376 167.471 113.719 167.848 113.01 167.845V167.845Z" fill="#D55A56"/>
<path d="M17.3348 153.968L11.5856 167.845H1.99037C1.28069 167.848 0.623636 167.471 0.267574 166.857C-0.0884888 166.243 -0.0892372 165.486 0.265612 164.871L5.95535 154.959C6.31089 154.343 6.96902 153.965 7.68011 153.968L17.3348 153.968Z" fill="#D55A56"/>
<path d="M81.1312 167.845H33.8489L37.6949 153.968H77.2852L77.5825 155.018L81.1312 167.845Z" fill="#D55A56"/>
<path d="M99.3702 144.055H93.5417L89.438 134.142L95.9604 134.142C96.6715 134.139 97.3296 134.518 97.6851 135.133L101.095 141.081C101.45 141.695 101.449 142.453 101.093 143.067C100.737 143.681 100.08 144.057 99.3702 144.055Z" fill="#D55A56"/>
<path d="M25.5622 134.142L21.4386 144.055H15.6299C14.9202 144.057 14.2632 143.681 13.9071 143.067C13.551 142.453 13.5503 141.695 13.9051 141.081L17.315 135.133C17.6706 134.518 18.3287 134.139 19.0398 134.142L25.5622 134.142Z" fill="#D55A56"/>
<path d="M74.5493 144.055H40.4505L43.1863 134.142H71.8134L74.5493 144.055Z" fill="#D55A56"/>
<path d="M98.1409 179.74H91.5631C89.78 179.74 88.216 178.55 87.7408 176.832L85.2548 167.845L81.4088 153.968L70.0491 112.871C69.8819 112.274 70.003 111.634 70.3765 111.14C70.75 110.646 71.3329 110.355 71.9523 110.353H73.9348C74.7423 110.349 75.4716 110.835 75.7785 111.582L93.3632 153.968L99.1322 167.845L101.793 174.255C102.3 175.476 102.165 176.871 101.431 177.972C100.698 179.074 99.464 179.737 98.1409 179.74V179.74Z" fill="#D55A56"/>
<path d="M44.9508 112.871L33.5912 153.968L29.7451 167.845L27.2591 176.832C26.7839 178.55 25.2199 179.74 23.4369 179.74H16.8689C15.5441 179.74 14.3068 179.078 13.5713 177.976C12.8357 176.875 12.6992 175.478 13.2072 174.255L15.8677 167.845L21.6368 153.968L39.2214 111.582C39.5283 110.835 40.2576 110.349 41.0651 110.353H43.0476C43.667 110.355 44.2499 110.646 44.6234 111.14C44.9969 111.634 45.118 112.274 44.9508 112.871V112.871Z" fill="#D55A56"/>
<path d="M89.1603 126.213H86.1469L82.8361 118.283L86.8804 118.283C87.5915 118.28 88.2496 118.658 88.6052 119.274L90.885 123.239C91.2399 123.854 91.2391 124.611 90.8831 125.225C90.527 125.839 89.8699 126.215 89.1603 126.213V126.213Z" fill="#D55A56"/>
<path d="M32.144 118.283L28.8531 126.213H25.8397C25.1301 126.215 24.473 125.839 24.1169 125.225C23.7609 124.611 23.7601 123.854 24.115 123.239L26.3948 119.274C26.7504 118.658 27.4085 118.28 28.1196 118.283L32.144 118.283Z" fill="#D55A56"/>
<path d="M69.6129 126.213H45.3869L47.5676 118.283H67.4321L69.6129 126.213Z" fill="#D55A56"/>
<path d="M70.3419 96.3629V99.5519C70.3419 102.09 68.4779 104.201 66.0525 104.56L65.2665 107.457C64.8398 109.029 63.4249 110.13 61.7855 110.13H53.9926C52.3532 110.13 50.9383 109.029 50.5116 107.457L49.7481 104.56C47.3002 104.178 45.4362 102.09 45.4362 99.5294V96.3404C45.4362 94.6336 46.8061 93.2637 48.5129 93.2637H67.2652C68.972 93.2862 70.3419 94.6561 70.3419 96.3629ZM84.7823 53.3786C84.7823 60.6324 81.9077 67.2126 77.2365 72.041C73.6882 75.7241 71.3975 80.4178 70.6339 85.4259C70.297 87.5819 68.433 89.1764 66.2321 89.1764H49.546C47.3675 89.1764 45.4811 87.6043 45.1667 85.4484C44.3806 80.4403 42.0675 75.6792 38.5191 72.0186C33.9377 67.2575 31.0856 60.7896 31.0182 53.6705C30.861 38.7136 42.7637 26.6088 57.7206 26.4965C72.6551 26.3842 84.7823 38.4665 84.7823 53.3786ZM60.9321 37.0966C60.9321 35.4347 59.5846 34.0648 57.9003 34.0648C47.2103 34.0648 38.4967 42.756 38.4967 53.4684C38.4967 55.1303 39.8442 56.5002 41.5285 56.5002C43.1904 56.5002 44.5603 55.1527 44.5603 53.4684C44.5603 46.1022 50.5566 40.1284 57.9003 40.1284C59.5846 40.1284 60.9321 38.7809 60.9321 37.0966ZM57.9003 17.6706C59.5622 17.6706 60.9321 16.3231 60.9321 14.6387V4.01619C60.9321 2.3543 59.5846 0.984375 57.9003 0.984375C56.2159 0.984375 54.8685 2.33185 54.8685 4.01619V14.6387C54.8685 16.3231 56.2384 17.6706 57.9003 17.6706ZM22.2147 53.3561C22.2147 51.6942 20.8673 50.3243 19.1829 50.3243H8.56037C6.89849 50.3243 5.52856 51.6718 5.52856 53.3561C5.52856 55.018 6.87604 56.3879 8.56037 56.3879H19.1829C20.8673 56.3879 22.2147 55.0404 22.2147 53.3561ZM107.24 50.3243H96.6176C94.9557 50.3243 93.5858 51.6718 93.5858 53.3561C93.5858 55.018 94.9333 56.3879 96.6176 56.3879H107.24C108.902 56.3879 110.272 55.0404 110.272 53.3561C110.272 51.6942 108.925 50.3243 107.24 50.3243ZM28.3907 78.5987L20.8673 86.1221C19.677 87.3124 19.677 89.2213 20.8673 90.4116C21.4512 90.9955 22.2372 91.2874 23.0008 91.2874C23.7643 91.2874 24.5504 90.9955 25.1343 90.4116L32.6577 82.8882C33.8479 81.6979 33.8479 79.789 32.6577 78.5987C31.4898 77.4085 29.5585 77.4085 28.3907 78.5987ZM85.2764 29.0118C86.04 29.0118 86.826 28.7198 87.4099 28.1359L94.9333 20.6125C96.1235 19.4223 96.1235 17.5134 94.9333 16.3231C93.743 15.1328 91.8341 15.1328 90.6438 16.3231L83.1204 23.8465C81.9302 25.0367 81.9302 26.9457 83.1204 28.1359C83.7268 28.7198 84.4904 29.0118 85.2764 29.0118ZM28.3907 28.1135C28.9746 28.6974 29.7606 28.9893 30.5242 28.9893C31.2877 28.9893 32.0737 28.6974 32.6577 28.1135C33.8479 26.9232 33.8479 25.0143 32.6577 23.824L25.1343 16.3006C23.944 15.1104 22.0351 15.1104 20.8448 16.3006C19.6546 17.4909 19.6546 19.3998 20.8448 20.5901L28.3907 28.1135ZM87.4099 78.5987C86.2196 77.4085 84.3107 77.4085 83.1204 78.5987C81.9302 79.789 81.9302 81.6979 83.1204 82.8882L90.6438 90.4116C91.2277 90.9955 92.0138 91.2874 92.7773 91.2874C93.5409 91.2874 94.3269 90.9955 94.9108 90.4116C96.1011 89.2213 96.1011 87.3124 94.9108 86.1221L87.4099 78.5987Z" fill="#D55A56"/>
</svg>
